#!OML:ASF H:\Terrain\Patient Classification 1\Walking\steve\steve.ASF
:FULLY-SPECIFIED
:DEGREES
394
root 8.4286 16.6599 16.2268 6.43723 -4.59611 0.944138
lowerback -1.45608 3.59344 -3.03605
upperback -1.43722 4.81106 -1.32291
thorax -0.795975 2.42591 0.367253
lowerneck -10.2133 -0.741448 -2.44139
upperneck 19.4018 -1.1 2.67599
head 7.6816 -0.445539 1.18268
rclavicle 8.00108e-015 4.37326e-015
rhumerus -38.9402 -12.7051 -81.6633
rradius 26.148
rwrist -0.636086
rhand -19.8926 -35.5139
rfingers 7.12502
rthumb 6.44347 -65.3959
lclavicle 8.00108e-015 4.37326e-015
lhumerus -31.7902 25.5558 72.4514
lradius 16.2978
lwrist -7.00638
lhand -22.1334 -10.6513
lfingers 7.12502
lthumb 4.27994 19.2854
rfemur -23.0145 2.16624 19.7169
rtibia 67.8051
rfoot -8.05458 3.53986
rtoes -17.4307
lfemur -22.013 2.09695 -25.4545
ltibia 30.996
lfoot -15.0656 -2.13007
ltoes 5.64533
395
root 8.43426 16.6427 16.3582 6.36911 -4.64745 0.989985
lowerback -1.19853 3.49613 -3.23102
upperback -1.56607 4.66857 -1.21711
thorax -1.09287 2.36174 0.558778
lowerneck -10.226 -0.777332 -2.41805
upperneck 19.6646 -1.11795 2.47714
head 7.77022 -0.470846 1.11292
rclavicle 7.70291e-016 1.19271e-014
rhumerus -40.0258 -12.8584 -81.3707
rradius 25.7637
rwrist -0.105371
rhand -4.65348 -74.9853
rfingers 7.12502
rthumb 21.1263 103.854
lclavicle 7.70291e-016 1.19271e-014
lhumerus -30.511 24.3056 73.9561
lradius 16.67
lwrist -6.14116
lhand -22.3025 -11.5994
lfingers 7.12502
lthumb 4.11667 18.3406
rfemur -24.1973 2.18129 19.8856
rtibia 67.3336
rfoot -9.27564 3.82884
rtoes -18.106
lfemur -21.3764 2.3257 -25.5639
ltibia 30.8485
lfoot -15.4106 -2.34086
ltoes 3.97169
396
root 8.44567 16.6485 16.4948 6.38348 -4.75414 1.03425
lowerback -1.13508 3.40595 -3.41223
upperback -1.71859 4.54322 -1.07207
thorax -1.30705 2.3064 0.796167
lowerneck -9.82629 -0.751009 -2.64991
upperneck 19.5851 -1.05705 2.52492
head 7.67162 -0.45719 1.17339
rclavicle 2.88238e-014 1.09332e-014
rhumerus -41.0379 -13.0267 -80.8209
rradius 25.1568
rwrist 0.450352
rhand -19.6985 -36.1647
rfingers 7.12502
rthumb 6.63083 -66.0409
lclavicle 2.88238e-014 1.09332e-014
lhumerus -29.5592 22.7181 75.4908
lradius 17.3372
lwrist -4.74463
lhand -22.3718 -11.9078
lfingers 7.12502
lthumb 4.04977 18.0334
rfemur -25.3822 2.13634 19.9763
rtibia 66.7119
rfoot -10.5526 4.14443
rtoes -17.8156
lfemur -20.8543 2.30489 -25.6466
ltibia 30.8109
lfoot -16.0025 -2.4324
ltoes 2.86522
397
root 8.46994 16.6519 16.6385 6.23995 -4.53442 1.51449
lowerback -1.19167 3.15448 -3.78333
upperback -1.67658 4.21265 -1.08523
thorax -1.24547 2.14418 0.995317
lowerneck -9.54076 -0.615221 -2.81004
upperneck 19.5033 -0.863823 2.60583
head 7.58859 -0.371359 1.24465
rclavicle 1.3654e-014 -4.37326e-015
rhumerus -41.9958 -13.1053 -80.3312
rradius 24.8604
rwrist 0.727495
rhand -18.348 -36.1799
rfingers 7.12502
rthumb 7.93443 -66.011
lclavicle 1.3654e-014 -4.37326e-015
lhumerus -28.5551 22.0097 76.5448
lradius 17.9167
lwrist -3.82916
lhand -21.7202 -12.1227
lfingers 7.12502
lthumb 4.67899 17.8056
rfemur -26.2548 1.64842 19.5121
rtibia 65.9875
rfoot -11.6399 4.4877
rtoes -17.867
lfemur -20.0928 2.13439 -26.2633
ltibia 30.7294
lfoot -16.5516 -2.6938
ltoes 2.7372
398
root 8.48927 16.631 16.7834 5.92854 -4.19151 1.86637
lowerback -0.971345 2.89622 -3.9964
upperback -1.63081 3.85904 -1.08537
thorax -1.32006 1.97049 1.1046
lowerneck -9.59586 -0.500812 -2.71226
upperneck 19.7533 -0.678635 2.37341
head 7.6746 -0.297518 1.17073
rclavicle 1.84994e-014 1.59028e-015
rhumerus -42.9858 -13.4588 -79.7747
rradius 24.5336
rwrist 1.85452
rhand -17.0164 -36.7688
rfingers 7.12502
rthumb 9.21948 -66.5472
lclavicle 1.84994e-014 1.59028e-015
lhumerus -27.4282 20.8722 77.6768
lradius 18.3925
lwrist -2.4541
lhand -21.1406 -12.3387
lfingers 7.12502
lthumb 5.23857 17.5765
rfemur -26.8937 1.05664 19.2349
rtibia 65.2309
rfoot -13.0007 4.11525
rtoes -25.0793
lfemur -19.0126 2.13786 -26.7808
ltibia 30.5446
lfoot -16.9374 -3.02704
ltoes 2.19081
399
root 8.49993 16.612 16.9202 5.74164 -4.06034 1.75035
lowerback -0.816523 2.73617 -3.85817
upperback -1.58014 3.64044 -0.964301
thorax -1.34285 1.86022 1.1474
lowerneck -9.72664 -0.39619 -2.41026
upperneck 19.9199 -0.506995 1.97987
head 7.74728 -0.229997 1.00773
rclavicle -2.76559e-014 -4.77083e-015
rhumerus -43.755 -14.3741 -78.932
rradius 23.8909
rwrist 3.68513
rhand -16.5943 -36.6613
rfingers 7.12502
rthumb 9.62683 -66.4214
lclavicle -2.76559e-014 -4.77083e-015
lhumerus -26.2014 18.7256 79.1661
lradius 19.0084
lwrist -0.121313
lhand -21.5204 -12.328
lfingers 7.12502
lthumb 4.8719 17.596
rfemur -27.762 0.919611 19.4765
rtibia 64.4001
rfoot -14.1558 4.59334
rtoes -19.3171
lfemur -18.126 2.08475 -26.7056
ltibia 30.3704
lfoot -17.3126 -3.30041
ltoes 2.81118
400
root 8.50705 16.617 17.0505 5.67312 -4.12289 1.7879
lowerback -0.517852 2.63726 -4.0448
upperback -1.70102 3.49103 -0.841229
thorax -1.64671 1.79532 1.35885
lowerneck -9.61718 -0.343307 -2.29043
upperneck 19.9695 -0.41711 1.77577
head 7.74137 -0.198261 0.929084
rclavicle -4.93856e-015 7.7526e-015
rhumerus -44.8098 -14.9867 -78.0496
rradius 23.6009
rwrist 4.42747
rhand -15.7211 -36.9743
rfingers 7.12502
rthumb 10.4692 -66.6936
lclavicle -4.93856e-015 7.7526e-015
lhumerus -25.2822 16.6297 80.4943
lradius 19.7173
lwrist 1.96018
lhand -22.0472 -12.3302
lfingers 7.12502
lthumb 4.36314 17.6049
rfemur -28.9249 1.24867 19.4775
rtibia 63.4384
rfoot -14.995 4.84368
rtoes -14.9627
lfemur -17.5464 1.78734 -26.7247
ltibia 30.3139
lfoot -17.7778 -3.4362
ltoes 4.37296
401
root 8.51688 16.6171 17.1922 5.6123 -4.00974 1.75422
lowerback -0.171522 2.48471 -4.1048
upperback -1.9108 3.26576 -0.700034
thorax -2.05683 1.69464 1.51723
lowerneck -9.44735 -0.317867 -2.37666
upperneck 20.0974 -0.360614 1.72003
head 7.7519 -0.18426 0.931029
rclavicle -7.1811e-015 9.93923e-015
rhumerus -46.0332 -15.4184 -77.1891
rradius 23.4964
rwrist 4.91839
rhand -13.2911 -39.0707
rfingers 7.12502
rthumb 12.8126 -68.6575
lclavicle -7.1811e-015 9.93923e-015
lhumerus -24.6137 14.7789 81.5152
lradius 20.5419
lwrist 3.54992
lhand -22.0507 -11.9937
lfingers 7.12502
lthumb 4.35983 17.9415
rfemur -29.8525 1.21239 19.6601
rtibia 62.2747
rfoot -15.8467 4.32942
rtoes -15.8692
lfemur -16.8941 1.5326 -26.7145
ltibia 30.2589
lfoot -18.2097 -3.57461
ltoes 5.37771
